<?xml version="1.0" encoding="utf-8"?>
<!-- Generator: Adobe Illustrator 16.0.0, SVG Export Plug-In . SVG Version: 6.00 Build 0)  -->
<!DOCTYPE svg PUBLIC "-//W3C//DTD SVG 1.1//EN" "http://www.w3.org/Graphics/SVG/1.1/DTD/svg11.dtd">
<svg version="1.1" id="Layer_1" xmlns="http://www.w3.org/2000/svg" xmlns:xlink="http://www.w3.org/1999/xlink" x="0px" y="0px"
	 width="200.75px" height="26.04px" viewBox="0 0 200.75 26.04" enable-background="new 0 0 200.75 26.04" xml:space="preserve">
<g>
	<g>
		<g>
			<path fill="#FDC010" d="M132.174,20.206c0.2-0.3,0.439-0.678,0.718-1.097c0.418-0.658,0.758-1.137,1.097-1.655
				c0.359-0.499,0.718-1.017,1.436-1.755h-2.692l-0.299,0.658h0.439c0.319,0,0.399,0.08,0.419,0.219c0.02,0.16,0,0.539-0.339,1.018
				l-1.656,2.412l-2.432-4.307h-0.056h-2.058h-6.475l-0.2,2.014h0.798l0.079-0.458c0.02-0.259,0.12-0.38,0.378-0.559
				c0.42-0.279,1.477-0.299,2.314-0.299v7.338c0,0.34-0.02,0.558-0.12,0.857c-0.06,0.119-0.119,0.378-0.278,0.498h2.971l0.239-0.639
				h-0.438c-0.339,0-0.578-0.06-0.777-0.279c-0.099-0.098-0.12-0.338-0.12-0.598v-7.178c0.438,0,1.953-0.021,2.252,0.259
				c0.4,0.379,0.976,1.216,0.976,1.216c0.198,0.332,0.421,0.695,0.635,1.038c0.578,0.897,0.957,1.556,1.256,2.293v2.392
				c0,0.34,0.02,0.698-0.101,0.998c-0.059,0.178-0.22,0.338-0.338,0.498h2.99l0.26-0.658h-0.438c-0.34,0-0.599-0.06-0.778-0.26
				c-0.1-0.119-0.12-0.338-0.12-0.617c0,0-0.04-2.234-0.02-2.512C131.815,20.764,131.976,20.504,132.174,20.206z"/>
			<path fill="#FDC010" d="M113.088,19.657l-0.957-0.418c-0.957-0.419-1.815-0.878-1.696-1.735c0.239-1.596,3.709-1.795,3.39,0.239
				h0.878l0.438-1.875c-0.758-0.218-1.596-0.358-2.552-0.358c-1.994,0.02-3.789,0.958-3.609,2.572
				c0.12,1.137,1.057,1.695,2.154,2.174l0.977,0.438c1.097,0.498,1.995,0.937,1.975,1.914c-0.04,1.057-1.037,1.784-2.333,1.795
				c-1.832,0.016-2.421-0.574-2.421-0.574c-0.028-0.028-3.481-3.794-3.481-3.794c1.316-0.258,2.312-1.156,2.252-2.371
				c-0.04-1.496-1.734-2.034-3.19-2.014l-3.888,0.02l-0.259,0.617h0.359c0.259,0,0.418,0.041,0.557,0.221
				c0.22,0.219,0.259,0.816,0.259,1.434v5.942c0,0.459-0.119,0.818-0.398,1.176h2.752l0.239-0.656h-0.398
				c-0.559,0-0.718-0.3-0.718-0.758l-0.02-7.22c1.496-0.258,3.091,0.2,3.091,1.536c0,1.058-1.077,1.755-2.751,1.835l4.565,5.243
				c0,0,2.537,0.186,3.291,0.201c2.152,0.039,3.987-1.217,3.967-3.053C115.561,20.833,114.365,20.215,113.088,19.657z"/>
			<path fill="#FDC010" d="M31.12,14.68h-0.877l0.08-0.398c0.08-0.518,0.02-0.898-0.339-1.296c-0.438-0.479-2.113-0.399-3.229-0.438
				v10.527c0,0.398,0.04,0.777,0.199,0.977c0.299,0.338,0.678,0.419,1.137,0.419h0.398l-0.239,0.677h-3.549
				c0.14-0.18,0.24-0.359,0.3-0.558c0.159-0.46,0.179-0.798,0.179-1.296l0.02-10.746c-1.137,0-2.652,0.02-3.291,0.458
				c-0.358,0.279-0.519,0.498-0.559,0.897l-0.079,0.538h-0.857l0.299-2.631h10.907L31.12,14.68z"/>
			<path fill="#FDC010" d="M40.711,25.088h-2.652c0.2-0.458,0.239-0.638,0.239-1.116v-3.929c-0.399,0.28-0.857,0.319-1.336,0.36
				c-0.419,0.02-0.917,0.039-1.375,0.059c-0.818,0.061-1.256,0.061-2.034,0.041v3.17c0,0.537,0.199,0.777,0.798,0.777h0.379
				l-0.22,0.658h-2.791c0.219-0.399,0.319-0.738,0.358-1.196c0.021-0.18,0.021-0.36,0.021-0.599v-5.682
				c0-0.319,0.059-0.858-0.16-1.118c-0.16-0.159-0.339-0.159-0.638-0.159H30.96l0.259-0.638h2.532
				c-0.08,0.199-0.12,0.239-0.139,0.379c-0.04,0.259-0.061,0.937-0.061,1.236v2.253h4.746l-0.02-1.953
				c0-0.319,0.04-0.838-0.179-1.098c-0.14-0.159-0.339-0.18-0.618-0.18h-0.358l0.278-0.638h2.552
				c-0.059,0.239-0.1,0.239-0.119,0.379c-0.06,0.279-0.08,0.937-0.08,1.236v6.36c0,0.518,0.199,0.758,0.817,0.758h0.399
				L40.711,25.088z"/>
			<path fill="#FDC010" d="M48.526,25.088l-6.66,0.021c0.14-0.18,0.279-0.379,0.339-0.599c0.1-0.38,0.08-0.698,0.08-1.097V18.01
				c0-0.299,0-1.057-0.14-1.316c-0.159-0.26-0.319-0.359-0.638-0.359h-0.339l0.239-0.617c0,0,6.581-0.021,6.899,0l-0.279,2.053
				H47.19c0.04-0.498-0.04-0.797-0.319-1.076c-0.279-0.279-1.157-0.339-1.994-0.339c-0.438,0-0.718,0.021-1.117,0.1v3.15h3.769
				c-0.239,0.639-0.718,0.778-1.376,0.857c-0.279,0.02-0.558,0.041-0.877,0.061c-0.598,0.039-0.958,0.02-1.516,0.02v2.752
				c0,0.318,0.12,0.697,0.219,0.816c0.18,0.199,0.838,0.26,1.535,0.26c0.738,0,1.317,0,1.775-0.479
				c0.299-0.299,0.438-0.537,0.519-1.037h0.957L48.526,25.088z"/>
			<path fill="#FDC010" d="M66.991,25.108H63.96l-0.021-1.196c-2.073,1.077-4.067,1.854-6.36,1.196
				c-2.632-0.758-2.493-3.908-2.513-6.681c-0.02-2.133,0.539-4.724,0.16-5.422c-0.18-0.319-0.538-0.519-0.957-0.519H53.93
				l0.159-0.678h3.331c-0.16,0.259-0.18,0.418-0.24,0.678c-0.179,0.877-0.538,3.987-0.518,6.24c0.02,2.473,0.199,4.705,2.352,5.324
				c1.875,0.518,3.431,0.02,4.886-0.938v-9.032c0-0.539,0-0.977-0.398-1.296c-0.299-0.259-0.578-0.299-0.957-0.299h-0.2l0.16-0.678
				h3.33c-0.16,0.299-0.22,0.479-0.3,0.797c-0.139,0.559-0.079,0.897-0.079,1.476v8.434c0,0.678-0.02,1.256,0.538,1.654
				c0.319,0.219,0.578,0.279,0.957,0.279h0.24L66.991,25.108z"/>
			<path fill="#FDC010" d="M76.901,16.434c-0.081,0.26-0.12,1.078-0.12,1.396l-0.02,7.278h-1.157
				c-0.04-0.399-0.16-0.479-0.359-0.799c-0.18-0.277-0.339-0.537-0.539-0.758l-5.144-6v5.223c0,0.559,0.081,1.258,0.179,1.377
				c0.2,0.219,0.439,0.299,0.679,0.299l0.379,0.021l-0.22,0.638h-2.632c0.2-0.18,0.36-0.418,0.438-0.638
				c0.2-0.539,0.18-0.798,0.2-1.356l0.019-5.423c0-0.3,0-0.897-0.239-1.157c-0.14-0.159-0.339-0.2-0.618-0.2h-0.359l0.259-0.617
				h2.633c0.14,0.479,0.438,0.797,0.837,1.297l4.686,5.522V17.85c0-0.537-0.02-1.056-0.24-1.295c-0.14-0.16-0.339-0.221-0.618-0.221
				h-0.339l0.22-0.617h2.393C77.08,15.977,76.941,16.295,76.901,16.434z"/>
			<path fill="#FDC010" d="M81.985,25.108h-2.931c0.1-0.16,0.24-0.32,0.299-0.479c0.12-0.32,0.14-0.538,0.14-0.878v-6.46
				c0-0.3,0-0.519-0.159-0.698c-0.16-0.16-0.319-0.26-0.559-0.26h-0.319l0.219-0.617h2.672c-0.16,0.159-0.2,0.319-0.279,0.479
				c-0.12,0.259-0.12,0.738-0.12,1.236v6.161c0,0.26,0.06,0.499,0.14,0.617c0.199,0.201,0.378,0.24,0.717,0.24h0.439L81.985,25.108z
				"/>
			<path fill="#FDC010" d="M90.539,18.13c-0.359,0.737-0.658,1.495-1.096,2.473c-0.719,1.594-1.457,3.469-1.496,4.565H86.73
				c-0.139-0.858-0.937-3.011-1.674-4.825c-0.578-1.455-1.536-3.271-1.815-3.589c-0.2-0.22-0.419-0.42-0.718-0.42h-0.339
				l0.179-0.598l2.374-0.02l2.891,7.099l2.153-5.165c0.16-0.398,0.24-0.757,0.16-0.937c-0.1-0.22-0.299-0.38-0.579-0.38h-0.379
				l0.16-0.598h2.892C91.276,16.714,90.897,17.392,90.539,18.13z"/>
			<path fill="#FDC010" d="M99.89,25.088l-6.66,0.021c0.14-0.18,0.279-0.379,0.339-0.599c0.1-0.38,0.08-0.698,0.08-1.097V18.01
				c0-0.299,0-1.057-0.139-1.316c-0.16-0.26-0.319-0.359-0.638-0.359h-0.34l0.239-0.617c0,0,6.581-0.021,6.899,0l-0.278,2.053
				h-0.838c0.04-0.498-0.04-0.797-0.318-1.076c-0.28-0.279-1.158-0.339-1.995-0.339c-0.438,0-0.717,0.021-1.116,0.1v3.15h3.769
				c-0.239,0.639-0.718,0.778-1.375,0.857c-0.28,0.02-0.559,0.041-0.877,0.061c-0.598,0.039-0.957,0.02-1.516,0.02v2.752
				c0,0.318,0.12,0.697,0.22,0.816c0.179,0.199,0.837,0.26,1.535,0.26c0.737,0,1.316,0,1.775-0.479
				c0.299-0.299,0.438-0.537,0.518-1.037h0.958L99.89,25.088z"/>
			<path fill="#FDC010" d="M119.811,25.108h-2.931c0.099-0.16,0.239-0.32,0.299-0.479c0.12-0.32,0.139-0.538,0.139-0.878v-6.46
				c0-0.3,0-0.519-0.159-0.698c-0.16-0.16-0.319-0.26-0.559-0.26h-0.318l0.219-0.617h2.671c-0.159,0.159-0.199,0.319-0.279,0.479
				c-0.119,0.259-0.119,0.738-0.119,1.236v6.161c0,0.26,0.059,0.499,0.139,0.617c0.199,0.201,0.379,0.24,0.719,0.24h0.438
				L119.811,25.108z"/>
			<path fill="#FDC010" d="M148.46,19.825c0.419,2.113-0.638,4.246-2.892,4.646c-2.293,0.417-4.107-1.297-4.526-3.45
				c-0.399-2.113,0.478-4.307,2.791-4.706C146.147,15.936,148.061,17.691,148.46,19.825z M150.136,19.805
				c-0.359-2.732-2.712-4.627-6.042-4.168c-3.191,0.438-5.045,2.633-4.666,5.503c0.358,2.732,2.572,4.526,5.842,4.108
				C148.521,24.851,150.494,22.536,150.136,19.805z"/>
			<path fill="#FDC010" d="M157.094,17.79h-0.838c0-0.418-0.04-0.798-0.338-1.076c-0.259-0.28-0.997-0.339-1.755-0.339
				c-0.438,0-0.718,0.02-1.117,0.1v3.15h3.75c-0.08,0.219-0.22,0.599-0.479,0.698c-0.379,0.158-1.037,0.199-1.715,0.219
				c-0.599,0.02-0.997,0.041-1.556,0v2.951c0,0.318,0.12,0.637,0.239,0.758c0.101,0.1,0.36,0.22,0.659,0.22
				c0.099,0.019,0.359-0.021,0.458-0.021c-0.099,0.338-0.199,0.658-0.199,0.658h-3.051c0.14-0.18,0.28-0.379,0.338-0.599
				c0.101-0.38,0.081-0.677,0.081-1.077v-5.403c0-0.299,0.021-1.117-0.12-1.376c-0.16-0.239-0.379-0.319-0.698-0.319h-0.339
				l0.259-0.617c0,0,6.341,0.02,6.72,0L157.094,17.79z"/>
			<path fill="#FDC010" d="M166.804,25.108h-3.549c0.12-0.18,0.239-0.339,0.299-0.539c0.159-0.478,0.179-0.797,0.179-1.295
				l0.02-9.371c0-0.399,0-0.758-0.259-1.058c-0.22-0.239-0.478-0.358-0.837-0.358h-0.239l0.199-0.678h3.191
				c-0.1,0.159-0.18,0.22-0.28,0.458c-0.179,0.419-0.219,1.138-0.219,1.875v8.911c0,0.379,0.041,0.758,0.2,0.958
				c0.299,0.339,0.678,0.438,1.136,0.438h0.399L166.804,25.108z"/>
			<path fill="#FDC010" d="M176.115,19.825c0.419,2.113-0.638,4.246-2.891,4.646c-2.292,0.417-4.107-1.297-4.526-3.45
				c-0.398-2.113,0.479-4.307,2.792-4.706C173.803,15.936,175.717,17.691,176.115,19.825z M177.791,19.805
				c-0.359-2.732-2.711-4.627-6.042-4.168c-3.19,0.438-5.044,2.633-4.665,5.503c0.358,2.732,2.572,4.526,5.842,4.108
				C176.175,24.851,178.15,22.536,177.791,19.805z"/>
			<path fill="#FDC010" d="M190.691,18.109c-0.359,0.718-0.678,1.495-1.096,2.452c-0.718,1.615-1.257,3.49-1.296,4.566h-1.236
				c-0.14-0.838-0.838-2.731-1.516-4.605c-0.099-0.299-0.239-0.718-0.398-1.057c-0.2,0.378-0.34,0.637-0.698,1.455
				c-0.699,1.615-1.216,3.131-1.256,4.207h-1.257c-0.139-0.838-0.937-3.011-1.675-4.805c-0.578-1.456-1.535-3.291-1.815-3.589
				c-0.199-0.221-0.418-0.4-0.717-0.4h-0.319l0.199-0.617h2.414l2.731,7.138c0.419-0.916,1.895-4.287,1.875-4.327
				c-0.339-0.917-0.718-1.615-0.878-1.793c-0.218-0.221-0.417-0.4-0.737-0.4h-0.339l0.22-0.617h2.432
				c0.757,2.014,1.914,5.224,2.532,7.019l1.974-4.926c0.16-0.398,0.339-0.937,0.24-1.116c-0.1-0.239-0.319-0.359-0.599-0.359h-0.338
				l0.179-0.617h2.89C191.449,16.693,191.05,17.372,190.691,18.109z"/>
			<path fill="#FDC010" d="M195.796,20.821c-0.938,0.059-1.795,0.04-2.712-0.06l1.375-3.43L195.796,20.821z M199.943,24.45h-0.338
				c-0.319,0-0.52-0.199-0.737-0.418c-0.28-0.3-1.098-2.195-1.696-3.649c-0.718-1.815-1.476-3.889-1.615-4.746h-2.134
				c0.459,0.957-0.338,2.911-1.077,4.546c-0.857,1.935-1.356,3.071-2.731,4.926h3.031l0.18-0.658h-0.379
				c-0.279,0-0.518-0.141-0.619-0.358c-0.079-0.18,0.041-0.599,0.201-0.997l0.598-1.416h2.173c0.459,0,0.897-0.1,1.176-0.438
				l1.417,3.867h2.353L199.943,24.45z"/>
		</g>
		<g>
			<path fill="#FDC010" d="M8.488,4.084c0,0.334-0.03,0.884,0.136,0.994c0.464,0.31,1.248,0.523,1.497,0.823
				c0.067,0.081-0.015,0.612-0.197,0.572C8.671,6.196,8.615,6.213,7.696,6.223C7.621,6.225,7.426,5.836,7.417,5.58
				C7.41,5.419,7.64,5.254,7.726,4.99c0.143-0.438,0.032-2.453,0.077-3.818c0.01-0.307,0.042-0.423,0.34-0.423
				c0.273,0,0.314,0.188,0.311,0.421C8.438,2.139,8.488,3.133,8.488,4.084z"/>
			<path fill="#FDC010" d="M7.758,1.051c0-0.285,0.381-0.476,0.524-0.285"/>
			<path fill="#FDC010" d="M9.998,5.864c0.19,0.19,0,0.667-0.382,0.524C8.949,6.15,8.33,6.245,7.663,6.15
				C7.472,6.103,7.424,5.769,7.424,5.578"/>
			<path fill="#FDC010" d="M8.425,2.101c0,0.904-0.047,1.763,0.048,2.667c0,0.096,0.095,0.239,0.143,0.286"/>
			<path fill="#FDC010" d="M13.512,14.489c0.094-0.024,0.737-0.057,1.048,0c0.084,0.015,0.144,0.077,0.167,0.106
				c0.093,0.12,0.079,0.598,0.073,0.743c-0.016,0.311-0.18,0.486-0.177,0.759c0.022,2.182,0.075,4.759-0.045,5.217
				c-0.2,0.772-0.172,0.906-0.477,0.934c-0.088,0.007-0.184-0.017-0.238-0.278c-0.04-0.19-0.059-0.502-0.064-0.894
				c-0.012-0.898,0.006-3.224-0.033-4.127c-0.035-0.822-0.249-0.875-0.31-0.918c-0.081-0.057-0.185-0.083-0.208-0.221
				c-0.049-0.285,0.044-0.934,0.133-1.167C13.397,14.598,13.441,14.506,13.512,14.489z"/>
			<path fill="#FDC010" d="M15.143,13.346"/>
			<path fill="#FDC010" d="M15.168,24.192c-0.743,0-1.871,0.04-2.085-0.097c-0.146-0.095-0.131-0.31-0.142-0.719
				c-0.073-2.765,0.027-5.521-0.02-8.283c0-0.239-0.077-0.624-0.411-0.624c-0.429,0-1.242-0.034-1.321,0.03
				c-0.062,0.032-0.109,0.07-0.143,0.143c-0.12,0.256-0.197,0.883-0.167,1.167c0.01,0.098,0.07,0.2,0.215,0.231
				c0.405,0.091,0.607,0.317,0.62,0.927c0.033,2.083,0.062,6.166-0.211,6.843c-0.137,0.339-0.766,0.564-0.932,0.21
				c-0.125-0.269-0.107-6.397-0.107-8.923c0-0.44-0.143-0.631-0.631-0.631c-0.616,0-1.176-0.006-1.803,0
				c-0.046,0.003-0.152,0.033-0.203,0.16c-0.14,0.345-0.214,1.163-0.143,1.287c0.023,0.039,0.051,0.105,0.209,0.123
				c0.818,0.088,1.2,0.469,1.22,1.313c0.031,1.299,0.217,6.169-0.35,6.687c-0.23,0.211-1.099,0.176-1.298,0.106
				c-0.143-0.05-0.228-0.164-0.243-0.305c-0.154-1.48,0.081-8.757-0.087-9.133c-0.063-0.142-0.13-0.17-0.266-0.209
				c-0.23-0.067-1.318,0.012-1.519-0.068c-0.043-0.017-0.13-0.034-0.137-0.132c-0.021-0.265,0.003-0.546,0.102-0.757
				c0.049-0.105,0.203-0.111,0.266-0.111c3.196-0.003,7.755,0.025,9.482-0.027c0.096-0.002,0.282-0.027,0.337-0.188
				c0.07-0.204,0.14-0.706,0.096-0.846c-0.024-0.083-0.06-0.114-0.17-0.142c-0.191-0.024-7.168-0.014-10.743-0.062
				c-0.191,0-0.527,0.022-0.572-0.142c-0.047-0.176-0.038-0.527,0.048-0.699c0.349-0.699,0.667-0.541,0.889-1.558
				c0.135-0.613-0.08-1.111,0.223-1.604c0.402-0.655,0.707-0.87,0.985-1.35C6.329,6.509,5.964,6.064,5.63,6.159
				C5.392,6.255,3.931,7.224,3.152,8.542c-0.619,1.049-0.843,2.179-1.287,3.288c-0.111,0.278-0.271,0.347-0.716,0.395
				c-0.276,0.029-0.388,1.005-0.206,1.127c0.036,0.023,0.108,0.047,0.135,0.052c0.402,0.087,0.547,0.577,0.556,1.059
				c0,0,0.097,8.269-0.139,9.146c-0.167,0.619-0.326,0.538-0.481,0.606C1,24.222,0.938,24.244,0.913,24.312
				c-0.065,0.171-0.141,0.59-0.088,0.806c0.02,0.082,0.048,0.126,0.155,0.126c5.447,0,11.914,0.004,14.192,0.004
				c0.12,0,0.174-0.025,0.218-0.198c0.061-0.216,0.11-0.522,0.087-0.696C15.442,24.192,15.281,24.192,15.168,24.192z M3.037,23.925
				c-0.254,0.284-0.498,0.388-0.503,0.05c-0.039-2.288-0.007-7.081,0.024-7.22c0.06-0.262,0.417-0.393,0.595,0.024
				C3.37,17.284,3.453,23.46,3.037,23.925z M5.542,23.91c-0.258,0.299-0.822,0.405-0.945,0.076
				c-0.196-0.525-0.092-7.593-0.064-7.735c0.054-0.274,0.55-0.244,0.73-0.115c0.415,0.296,0.481,0.532,0.522,1.199
				C5.905,19.239,5.935,23.458,5.542,23.91z"/>
		</g>
	</g>
</g>
</svg>
